<svg width="24" height="24" viewBox="0 0 24 24" fill="none" xmlns="http://www.w3.org/2000/svg">
<path fill-rule="evenodd" clip-rule="evenodd" d="M12.32 5.17603H6C4.895 5.17603 4 6.12502 4 7.29402V17.882C4 19.052 4.895 20 6 20H17C18.105 20 19 19.052 19 17.882V10.132L15.086 14.276C14.7442 14.6415 14.2991 14.8941 13.81 15L11.129 15.568C9.379 15.938 7.837 14.305 8.187 12.453L8.723 9.61403C8.82 9.10203 9.058 8.63103 9.407 8.26203L12.32 5.17603Z" fill="#577C8E"/>
<path fill-rule="evenodd" clip-rule="evenodd" d="M20.846 3.31802C20.7449 3.06205 20.5967 2.82732 20.409 2.62602C20.2245 2.42915 20.002 2.27165 19.755 2.16302C19.5117 2.05615 19.2488 2.00098 18.983 2.00098C18.7172 2.00098 18.4543 2.05615 18.211 2.16302C17.964 2.27165 17.7415 2.42915 17.557 2.62602L17.011 3.20402L19.863 6.22402L20.409 5.64502C20.5986 5.44524 20.7471 5.21011 20.846 4.95302C21.052 4.42749 21.052 3.84355 20.846 3.31802ZM18.45 7.72102L15.597 4.70002L10.82 9.76002C10.7495 9.83511 10.702 9.9288 10.683 10.03L10.147 12.87C10.077 13.24 10.386 13.566 10.735 13.492L13.417 12.925C13.5146 12.9033 13.6034 12.8528 13.672 12.78L18.45 7.72102Z" fill="#577C8E"/>
</svg>
